<?xml version="1.0" encoding="UTF-8" standalone="no"?>
<!DOCTYPE svg PUBLIC "-//W3C//DTD SVG 1.1//EN" "http://www.w3.org/Graphics/SVG/1.1/DTD/svg11.dtd">
<svg version="1.1" xmlns="http://www.w3.org/2000/svg" xmlns:xlink="http://www.w3.org/1999/xlink" preserveAspectRatio="xMidYMid meet" viewBox="0 0 640 640" width="100" height="100"><defs><path d="M444.81 275.93C442.78 286.94 431.57 294.12 419.78 291.95C407.99 289.78 400.07 279.08 402.09 268.07C404.12 257.05 415.34 249.88 427.12 252.05C438.91 254.22 446.84 264.92 444.81 275.93Z" id="aDM2evsbL"></path><path d="M413.2 293.84C411.17 304.85 399.95 312.03 388.17 309.86C376.38 307.69 368.46 296.99 370.48 285.98C372.51 274.97 383.73 267.79 395.51 269.96C407.3 272.13 415.22 282.83 413.2 293.84Z" id="a2y36GaHO3"></path><path d="M392.37 273.5C390.34 284.52 379.13 291.69 367.34 289.52C355.55 287.35 347.63 276.65 349.66 265.64C351.68 254.63 362.9 247.45 374.69 249.62C386.47 251.79 394.4 262.49 392.37 273.5Z" id="b3jGdDcsB"></path><path d="M389.03 244.68C387 255.69 375.79 262.87 364 260.7C352.21 258.53 344.29 247.83 346.32 236.82C348.34 225.81 359.56 218.63 371.35 220.8C383.13 222.97 391.06 233.67 389.03 244.68Z" id="a3B0DtjaWm"></path><path d="M423.13 244.68C421.11 255.69 409.89 262.87 398.1 260.7C386.32 258.53 378.39 247.83 380.42 236.82C382.45 225.81 393.66 218.63 405.45 220.8C417.24 222.97 425.16 233.67 423.13 244.68Z" id="i3BvkOWlrU"></path><path d="M408.61 261.09C408.61 269.3 401.47 275.97 392.69 275.97C383.9 275.97 376.76 269.3 376.76 261.09C376.76 252.87 383.9 246.21 392.69 246.21C401.47 246.21 408.61 252.87 408.61 261.09Z" id="dED58voJN"></path></defs><g><g><g><use xlink:href="#aDM2evsbL" opacity="1" fill="#bae1ff" fill-opacity="1"></use></g><g><use xlink:href="#a2y36GaHO3" opacity="1" fill="#bae1ff" fill-opacity="1"></use></g><g><use xlink:href="#b3jGdDcsB" opacity="1" fill="#bae1ff" fill-opacity="1"></use></g><g><use xlink:href="#a3B0DtjaWm" opacity="1" fill="#bae1ff" fill-opacity="1"></use></g><g><use xlink:href="#i3BvkOWlrU" opacity="1" fill="#bae1ff" fill-opacity="1"></use></g><g><use xlink:href="#dED58voJN" opacity="1" fill="#929899" fill-opacity="1"></use></g></g></g></svg>