<?xml version="1.0" encoding="UTF-8" standalone="no"?>
<!DOCTYPE svg PUBLIC "-//W3C//DTD SVG 1.1//EN" "http://www.w3.org/Graphics/SVG/1.1/DTD/svg11.dtd">
<svg version="1.1" xmlns="http://www.w3.org/2000/svg" xmlns:xlink="http://www.w3.org/1999/xlink" preserveAspectRatio="xMidYMid meet" viewBox="0 0 640 640" width="100" height="100"><defs><path d="M259.96 208.25C257.93 219.26 246.72 226.44 234.93 224.27C223.14 222.1 215.22 211.4 217.25 200.39C219.27 189.38 230.49 182.2 242.28 184.37C254.06 186.54 261.99 197.24 259.96 208.25Z" id="b7qDQe3wu"></path><path d="M226.33 223.13C224.3 234.15 213.09 241.32 201.3 239.15C189.51 236.98 181.59 226.28 183.61 215.27C185.64 204.26 196.86 197.08 208.64 199.25C220.43 201.42 228.36 212.12 226.33 223.13Z" id="e17qsyw8aZ"></path><path d="M204.66 197.75C202.63 208.76 191.41 215.94 179.62 213.77C167.84 211.6 159.91 200.89 161.94 189.88C163.97 178.87 175.18 171.69 186.97 173.87C198.76 176.04 206.68 186.74 204.66 197.75Z" id="dbajWPuLF"></path><path d="M222.36 167.58C220.34 178.59 209.12 185.77 197.33 183.6C185.55 181.43 177.62 170.72 179.65 159.71C181.68 148.7 192.89 141.53 204.68 143.7C216.47 145.87 224.39 156.57 222.36 167.58Z" id="a1e8yR149i"></path><path d="M259.96 169.6C257.93 180.61 246.72 187.79 234.93 185.62C223.14 183.45 215.22 172.74 217.25 161.73C219.27 150.72 230.49 143.55 242.28 145.72C254.06 147.89 261.99 158.59 259.96 169.6Z" id="dokr3dNBz"></path><path d="M232.85 188.36C232.85 196.57 225.72 203.24 216.93 203.24C208.14 203.24 201.01 196.57 201.01 188.36C201.01 180.15 208.14 173.48 216.93 173.48C225.72 173.48 232.85 180.15 232.85 188.36Z" id="g2cvdIoxdb"></path></defs><g><g><g><use xlink:href="#b7qDQe3wu" opacity="1" fill="#baffc9" fill-opacity="1"></use></g><g><use xlink:href="#e17qsyw8aZ" opacity="1" fill="#baffc9" fill-opacity="1"></use></g><g><use xlink:href="#dbajWPuLF" opacity="1" fill="#baffc9" fill-opacity="1"></use></g><g><use xlink:href="#a1e8yR149i" opacity="1" fill="#baffc9" fill-opacity="1"></use></g><g><use xlink:href="#dokr3dNBz" opacity="1" fill="#baffc9" fill-opacity="1"></use></g><g><use xlink:href="#g2cvdIoxdb" opacity="1" fill="#929899" fill-opacity="1"></use></g></g></g></svg>