<?xml version="1.0" encoding="UTF-8" standalone="no"?>
<!DOCTYPE svg PUBLIC "-//W3C//DTD SVG 1.1//EN" "http://www.w3.org/Graphics/SVG/1.1/DTD/svg11.dtd">
<svg version="1.1" xmlns="http://www.w3.org/2000/svg" xmlns:xlink="http://www.w3.org/1999/xlink" preserveAspectRatio="xMidYMid meet" viewBox="0 0 640 640" width="100" height="100"><defs><path d="M337.51 260.19C337.51 275.44 324.74 287.83 309.01 287.83C293.29 287.83 280.52 275.44 280.52 260.19C280.52 244.94 293.29 232.55 309.01 232.55C324.74 232.55 337.51 244.94 337.51 260.19Z" id="aSkhnmlXP"></path><path d="M274.81 228.57C274.81 243.82 262.04 256.21 246.32 256.21C230.59 256.21 217.82 243.82 217.82 228.57C217.82 213.32 230.59 200.93 246.32 200.93C262.04 200.93 274.81 213.32 274.81 228.57Z" id="bgLUHS8xD"></path><path d="M311.62 203.47C308.98 217.82 294.82 227.26 280.03 224.54C265.23 221.81 255.36 207.95 258.01 193.6C260.65 179.25 274.81 169.81 289.6 172.53C304.4 175.25 314.27 189.12 311.62 203.47Z" id="c2PEfeD1Tm"></path><path d="M346.19 230.75C340.19 244.77 323.58 251.13 309.12 244.94C294.67 238.75 287.8 222.34 293.81 208.32C299.81 194.3 316.42 187.94 330.88 194.13C345.33 200.32 352.2 216.73 346.19 230.75Z" id="e3Rf1yHpJC"></path><path d="M294.75 267.14C294.75 280.04 283.9 290.5 270.53 290.5C257.17 290.5 246.32 280.04 246.32 267.14C246.32 254.25 257.17 243.78 270.53 243.78C283.9 243.78 294.75 254.25 294.75 267.14Z" id="a1Ccv3xKA2"></path><path d="M300.48 232.55C300.48 243.83 291.54 252.99 280.52 252.99C269.5 252.99 260.56 243.83 260.56 232.55C260.56 221.27 269.5 212.12 280.52 212.12C291.54 212.12 300.48 221.27 300.48 232.55Z" id="eClaBdxGV"></path></defs><g><g><g><use xlink:href="#aSkhnmlXP" opacity="1" fill="#ffdfba" fill-opacity="1"></use></g><g><use xlink:href="#bgLUHS8xD" opacity="1" fill="#ffdfba" fill-opacity="1"></use></g><g><use xlink:href="#c2PEfeD1Tm" opacity="1" fill="#ffdfba" fill-opacity="1"></use></g><g><use xlink:href="#e3Rf1yHpJC" opacity="1" fill="#ffdfba" fill-opacity="1"></use></g><g><use xlink:href="#a1Ccv3xKA2" opacity="1" fill="#ffdfba" fill-opacity="1"></use></g><g><use xlink:href="#eClaBdxGV" opacity="1" fill="#929899" fill-opacity="1"></use></g></g></g></svg>