<?xml version="1.0" encoding="UTF-8" standalone="no"?>
<!DOCTYPE svg PUBLIC "-//W3C//DTD SVG 1.1//EN" "http://www.w3.org/Graphics/SVG/1.1/DTD/svg11.dtd">
<svg version="1.1" xmlns="http://www.w3.org/2000/svg" xmlns:xlink="http://www.w3.org/1999/xlink" preserveAspectRatio="xMidYMid meet" viewBox="0 0 640 640" width="100" height="100"><defs><path d="M376.98 366.28C376.98 381.53 364.22 393.92 348.49 393.92C332.77 393.92 320 381.53 320 366.28C320 351.03 332.77 338.64 348.49 338.64C364.22 338.64 376.98 351.03 376.98 366.28Z" id="a9gKIg2Eh"></path><path d="M337.66 320C337.66 335.25 324.9 347.64 309.17 347.64C293.45 347.64 280.68 335.25 280.68 320C280.68 304.75 293.45 292.36 309.17 292.36C324.9 292.36 337.66 304.75 337.66 320Z" id="b1HSaqwBdB"></path><path d="M362.84 304.64C360.07 319.65 345.28 329.51 329.81 326.67C314.35 323.82 304.03 309.33 306.79 294.33C309.56 279.33 324.35 269.46 339.82 272.31C355.28 275.15 365.6 289.64 362.84 304.64Z" id="dyDGvqC0S"></path><path d="M398.05 338.34C392.04 352.36 375.43 358.72 360.98 352.53C346.52 346.34 339.66 329.93 345.66 315.91C351.67 301.89 368.28 295.53 382.73 301.72C397.19 307.91 404.05 324.32 398.05 338.34Z" id="auuQGqBu2"></path><path d="M330.54 354.76C330.54 367.65 319.69 378.12 306.32 378.12C292.96 378.12 282.11 367.65 282.11 354.76C282.11 341.87 292.96 331.4 306.32 331.4C319.69 331.4 330.54 341.87 330.54 354.76Z" id="a1yMcrEdLB"></path><path d="M350.96 336.36C350.96 343.96 345 350.13 337.66 350.13C330.33 350.13 324.37 343.96 324.37 336.36C324.37 328.76 330.33 322.59 337.66 322.59C345 322.59 350.96 328.76 350.96 336.36Z" id="c4DayUpPib"></path></defs><g><g><g><use xlink:href="#a9gKIg2Eh" opacity="1" fill="#ffb3ba" fill-opacity="1"></use></g><g><use xlink:href="#b1HSaqwBdB" opacity="1" fill="#ffb3ba" fill-opacity="1"></use></g><g><use xlink:href="#dyDGvqC0S" opacity="1" fill="#ffb3ba" fill-opacity="1"></use></g><g><use xlink:href="#auuQGqBu2" opacity="1" fill="#ffb3ba" fill-opacity="1"></use></g><g><use xlink:href="#a1yMcrEdLB" opacity="1" fill="#ffb3ba" fill-opacity="1"></use></g><g><use xlink:href="#c4DayUpPib" opacity="1" fill="#929899" fill-opacity="1"></use></g></g></g></svg>