<?xml version="1.0" encoding="UTF-8" standalone="no"?>
<!DOCTYPE svg PUBLIC "-//W3C//DTD SVG 1.1//EN" "http://www.w3.org/Graphics/SVG/1.1/DTD/svg11.dtd">
<svg version="1.1" xmlns="http://www.w3.org/2000/svg" xmlns:xlink="http://www.w3.org/1999/xlink" preserveAspectRatio="xMidYMid meet" viewBox="0 0 640 640" width="100" height="100"><defs><path d="M493.06 314.74C493.06 329.99 480.29 342.37 464.57 342.37C448.84 342.37 436.08 329.99 436.08 314.74C436.08 299.48 448.84 287.1 464.57 287.1C480.29 287.1 493.06 299.48 493.06 314.74Z" id="a4adLApZdW"></path><path d="M457.64 301.19C457.64 316.45 444.87 328.83 429.14 328.83C413.42 328.83 400.65 316.45 400.65 301.19C400.65 285.94 413.42 273.56 429.14 273.56C444.87 273.56 457.64 285.94 457.64 301.19Z" id="aobM76YH2"></path><path d="M462.89 268.12C460.24 282.47 446.09 291.91 431.29 289.18C416.49 286.46 406.63 272.6 409.27 258.24C411.91 243.89 426.07 234.45 440.86 237.18C455.66 239.9 465.53 253.76 462.89 268.12Z" id="kwk5r3VnK"></path><path d="M524.08 295.2C518.08 309.22 501.46 315.58 487.01 309.39C472.55 303.2 465.69 286.79 471.7 272.77C477.7 258.75 494.31 252.39 508.77 258.58C523.22 264.77 530.08 281.18 524.08 295.2Z" id="d3oiwLn1rH"></path><path d="M493.74 247.31C493.74 260.21 482.89 270.67 469.52 270.67C456.16 270.67 445.31 260.21 445.31 247.31C445.31 234.42 456.16 223.95 469.52 223.95C482.89 223.95 493.74 234.42 493.74 247.31Z" id="aWZG44h0Z"></path><path d="M479.17 283.98C479.17 293.31 471.58 300.89 462.24 300.89C452.89 300.89 445.31 293.31 445.31 283.98C445.31 274.65 452.89 267.08 462.24 267.08C471.58 267.08 479.17 274.65 479.17 283.98Z" id="b4s750Xlk0"></path></defs><g><g><g><use xlink:href="#a4adLApZdW" opacity="1" fill="#e5e5a7" fill-opacity="1"></use></g><g><use xlink:href="#aobM76YH2" opacity="1" fill="#e5e5a7" fill-opacity="1"></use></g><g><use xlink:href="#kwk5r3VnK" opacity="1" fill="#e5e5a7" fill-opacity="1"></use></g><g><use xlink:href="#d3oiwLn1rH" opacity="1" fill="#e5e5a7" fill-opacity="1"></use></g><g><use xlink:href="#aWZG44h0Z" opacity="1" fill="#e5e5a7" fill-opacity="1"></use></g><g><use xlink:href="#b4s750Xlk0" opacity="1" fill="#929899" fill-opacity="1"></use></g></g></g></svg>